<?xml version="1.0" standalone="no"?><!DOCTYPE svg PUBLIC "-//W3C//DTD SVG 1.1//EN" "http://www.w3.org/Graphics/SVG/1.1/DTD/svg11.dtd"><svg t="1492065297438" class="icon" style="" viewBox="0 0 1024 1024" version="1.1" xmlns="http://www.w3.org/2000/svg" p-id="3934" xmlns:xlink="http://www.w3.org/1999/xlink" width="200" height="200"><defs><style type="text/css"></style></defs><path d="M-0.042667 336.810667l21.333333 0 0 170.666667-21.333333 0L-0.042667 336.810667z" p-id="3935" fill="#91d4da"></path><path d="M42.624 336.810667l21.333333 0 0 170.666667-21.333333 0L42.624 336.810667z" p-id="3936" fill="#91d4da"></path><path d="M288.938667 206.741333l-65.173333-45.632L157.866667 205.653333l23.274667-76.074667L118.4 80.682667l79.530667-1.386667 27.114667-74.794667 25.898667 75.221333 79.509333 2.688-63.530667 47.872L288.938667 206.741333z" p-id="3937" fill="#91d4da"></path><path d="M587.605333 206.741333l-65.173333-45.632L456.533333 205.653333l23.274667-76.074667L417.066667 80.682667l79.552-1.386667 27.114667-74.794667 25.898667 75.221333 79.509333 2.688-63.530667 47.872L587.605333 206.741333z" p-id="3938" fill="#91d4da"></path><path d="M886.272 206.741333l-65.173333-45.632L755.2 205.653333l23.274667-76.074667L715.733333 80.682667l79.552-1.386667 27.114667-74.794667 25.898667 75.221333 79.509333 2.688-63.530667 47.872L886.272 206.741333z" p-id="3939" fill="#91d4da"></path><path d="M1002.624 336.810667l-21.333333 0-42.666667 0 0 277.333333 42.666667 0c0 7.68 0 14.976 0 21.333333 0 111.68-21.333333 256-21.333333 256l21.333333 42.666667 21.333333 0 21.333333-42.666667c0 0 0-143.914667 0-256 0-69.12 0-234.666667 0-234.666667L1002.624 336.810667z" p-id="3940" fill="#91d4da"></path><path d="M42.624 507.477333l64 0c0 0-21.333333 58.88-21.333333 128 0 112.085333 21.333333 256 21.333333 256l-21.333333 42.666667-21.333333 0-21.333333-42.666667c0 0 21.333333-144.32 21.333333-256C63.957333 564.992 42.624 507.477333 42.624 507.477333z" p-id="3941" fill="#91d4da"></path><path d="M85.290667 336.810667l21.333333 0 0 170.666667-21.333333 0L85.290667 336.810667z" p-id="3942" fill="#91d4da"></path><path d="M-0.042667 507.477333l149.333333 0 0 21.333333-42.666667 21.333333-64 0-42.666667-21.333333L-0.042667 507.477333z" p-id="3943" fill="#91d4da"></path><path d="M127.957333 336.810667l21.333333 0 0 170.666667-21.333333 0L127.957333 336.810667z" p-id="3944" fill="#91d4da"></path><path d="M533.290667 294.144c-200.298667 0-362.666667 162.368-362.666667 362.666667s162.368 362.666667 362.666667 362.666667c200.298667 0 362.666667-162.368 362.666667-362.666667S733.589333 294.144 533.290667 294.144zM533.290667 934.144c-153.173333 0-277.333333-124.16-277.333333-277.333333s124.16-277.333333 277.333333-277.333333c153.173333 0 277.333333 124.16 277.333333 277.333333S686.464 934.144 533.290667 934.144z" p-id="3945" fill="#91d4da"></path></svg>