<?xml version="1.0" standalone="no"?><!DOCTYPE svg PUBLIC "-//W3C//DTD SVG 1.1//EN" "http://www.w3.org/Graphics/SVG/1.1/DTD/svg11.dtd"><svg t="1492053215756" class="icon" style="" viewBox="0 0 1024 1024" version="1.1" xmlns="http://www.w3.org/2000/svg" p-id="2377" xmlns:xlink="http://www.w3.org/1999/xlink" width="46" height="46"><defs><style type="text/css"></style></defs><path d="M685.423 96h-0.002a28.609 28.609 0 0 1 19.158 8.324l41.675 41.675c4.961 4.963 8.324 12.486 8.324 19.156 0 6.672-3.308 14.142-8.324 19.156L418.566 511.999l327.688 327.69a28.826 28.826 0 0 1 8.324 19.156 27.11 27.11 0 0 1-8.324 19.158l-41.675 41.673c-4.962 4.963-12.486 8.324-19.156 8.324-6.672 0-14.142-3.307-19.156-8.324L277.746 531.157c-4.963-4.963-8.324-12.484-8.324-19.156 0-6.67 3.308-14.14 8.324-19.158l388.52-388.519A28.816 28.816 0 0 1 685.423 96z" fill="#ffffff" p-id="2378"></path></svg>